<mxfile host="app.diagrams.net" modified="2021-09-06T05:10:33.960Z" agent="5.0 (Windows NT 10.0; Win64; x64) AppleWebKit/537.36 (KHTML, like Gecko) Chrome/93.0.4577.63 Safari/537.36 Edg/93.0.961.38" etag="oYJs5a2nuFOSC8JGG6Oe" version="15.0.6" type="github">
  <diagram id="M3zIEjrVUpGc1rC4TXOP" name="Page-1">
    <mxGraphModel dx="1038" dy="588" grid="1" gridSize="10" guides="1" tooltips="1" connect="1" arrows="1" fold="1" page="1" pageScale="1" pageWidth="827" pageHeight="1169" math="0" shadow="0">
      <root>
        <mxCell id="0" />
        <mxCell id="1" parent="0" />
        <mxCell id="bA7a3gXTjvqMUb_rO1Sc-1" value="" style="edgeStyle=orthogonalEdgeStyle;rounded=0;orthogonalLoop=1;jettySize=auto;html=1;" parent="1" source="bA7a3gXTjvqMUb_rO1Sc-2" edge="1">
          <mxGeometry relative="1" as="geometry">
            <mxPoint x="200" y="65" as="targetPoint" />
          </mxGeometry>
        </mxCell>
        <mxCell id="bA7a3gXTjvqMUb_rO1Sc-2" value="로그인" style="ellipse;whiteSpace=wrap;html=1;" parent="1" vertex="1">
          <mxGeometry x="20" y="40" width="100" height="50" as="geometry" />
        </mxCell>
        <mxCell id="bA7a3gXTjvqMUb_rO1Sc-3" value="과제탐색" style="rounded=0;whiteSpace=wrap;html=1;" parent="1" vertex="1">
          <mxGeometry x="527.89" y="44.5" width="80" height="40" as="geometry" />
        </mxCell>
        <mxCell id="bA7a3gXTjvqMUb_rO1Sc-4" value="과제주관여부" style="rhombus;whiteSpace=wrap;html=1;" parent="1" vertex="1">
          <mxGeometry x="357.89" y="29.5" width="80" height="70" as="geometry" />
        </mxCell>
        <mxCell id="bA7a3gXTjvqMUb_rO1Sc-5" value="R&amp;amp;D" style="text;html=1;resizable=0;autosize=1;align=center;verticalAlign=middle;points=[];fillColor=none;strokeColor=none;rounded=0;" parent="1" vertex="1">
          <mxGeometry x="10" y="10" width="40" height="20" as="geometry" />
        </mxCell>
        <mxCell id="bA7a3gXTjvqMUb_rO1Sc-6" value="" style="edgeStyle=orthogonalEdgeStyle;rounded=0;orthogonalLoop=1;jettySize=auto;html=1;" parent="1" edge="1">
          <mxGeometry relative="1" as="geometry">
            <mxPoint x="437.89" y="64" as="sourcePoint" />
            <mxPoint x="527.89" y="64" as="targetPoint" />
            <Array as="points">
              <mxPoint x="477.89" y="64.5" />
              <mxPoint x="477.89" y="64.5" />
            </Array>
          </mxGeometry>
        </mxCell>
        <mxCell id="bA7a3gXTjvqMUb_rO1Sc-7" value="No" style="text;html=1;resizable=0;autosize=1;align=center;verticalAlign=middle;points=[];fillColor=none;strokeColor=none;rounded=0;" parent="1" vertex="1">
          <mxGeometry x="437.89" y="39.5" width="30" height="20" as="geometry" />
        </mxCell>
        <mxCell id="bA7a3gXTjvqMUb_rO1Sc-8" value="" style="edgeStyle=orthogonalEdgeStyle;rounded=0;orthogonalLoop=1;jettySize=auto;html=1;" parent="1" edge="1">
          <mxGeometry relative="1" as="geometry">
            <mxPoint x="397.39" y="119.5" as="sourcePoint" />
            <mxPoint x="397.89" y="179.5" as="targetPoint" />
            <Array as="points">
              <mxPoint x="397.39" y="99.5" />
              <mxPoint x="397.39" y="99.5" />
            </Array>
          </mxGeometry>
        </mxCell>
        <mxCell id="bA7a3gXTjvqMUb_rO1Sc-9" value="Yes" style="text;html=1;resizable=0;autosize=1;align=center;verticalAlign=middle;points=[];fillColor=none;strokeColor=none;rounded=0;" parent="1" vertex="1">
          <mxGeometry x="397.89" y="99.5" width="30" height="20" as="geometry" />
        </mxCell>
        <mxCell id="bA7a3gXTjvqMUb_rO1Sc-10" value="과제등록" style="rounded=0;whiteSpace=wrap;html=1;" parent="1" vertex="1">
          <mxGeometry x="357.89" y="179.5" width="80" height="40" as="geometry" />
        </mxCell>
        <mxCell id="bA7a3gXTjvqMUb_rO1Sc-11" value="" style="edgeStyle=orthogonalEdgeStyle;rounded=0;orthogonalLoop=1;jettySize=auto;html=1;" parent="1" edge="1">
          <mxGeometry relative="1" as="geometry">
            <mxPoint x="607.89" y="64" as="sourcePoint" />
            <mxPoint x="697.89" y="64" as="targetPoint" />
            <Array as="points">
              <mxPoint x="647.89" y="64.5" />
              <mxPoint x="647.89" y="64.5" />
            </Array>
          </mxGeometry>
        </mxCell>
        <mxCell id="bA7a3gXTjvqMUb_rO1Sc-12" value="협업제안" style="rounded=0;whiteSpace=wrap;html=1;" parent="1" vertex="1">
          <mxGeometry x="697.89" y="44.5" width="80" height="40" as="geometry" />
        </mxCell>
        <mxCell id="bA7a3gXTjvqMUb_rO1Sc-13" value="" style="edgeStyle=orthogonalEdgeStyle;rounded=0;orthogonalLoop=1;jettySize=auto;html=1;" parent="1" edge="1">
          <mxGeometry relative="1" as="geometry">
            <mxPoint x="777.89" y="64" as="sourcePoint" />
            <mxPoint x="867.89" y="64" as="targetPoint" />
            <Array as="points">
              <mxPoint x="817.89" y="64.5" />
              <mxPoint x="817.89" y="64.5" />
            </Array>
          </mxGeometry>
        </mxCell>
        <mxCell id="bA7a3gXTjvqMUb_rO1Sc-15" value="" style="edgeStyle=orthogonalEdgeStyle;rounded=0;orthogonalLoop=1;jettySize=auto;html=1;" parent="1" edge="1">
          <mxGeometry relative="1" as="geometry">
            <mxPoint x="437.89" y="199" as="sourcePoint" />
            <mxPoint x="527.89" y="199" as="targetPoint" />
            <Array as="points">
              <mxPoint x="477.89" y="199.5" />
              <mxPoint x="477.89" y="199.5" />
            </Array>
          </mxGeometry>
        </mxCell>
        <mxCell id="bA7a3gXTjvqMUb_rO1Sc-16" value="일반" style="text;html=1;resizable=0;autosize=1;align=center;verticalAlign=middle;points=[];fillColor=none;strokeColor=none;rounded=0;" parent="1" vertex="1">
          <mxGeometry x="20" y="290" width="40" height="20" as="geometry" />
        </mxCell>
        <mxCell id="bA7a3gXTjvqMUb_rO1Sc-17" value="로그인" style="ellipse;whiteSpace=wrap;html=1;" parent="1" vertex="1">
          <mxGeometry x="20" y="330" width="100" height="50" as="geometry" />
        </mxCell>
        <mxCell id="bA7a3gXTjvqMUb_rO1Sc-18" value="" style="edgeStyle=orthogonalEdgeStyle;rounded=0;orthogonalLoop=1;jettySize=auto;html=1;" parent="1" edge="1">
          <mxGeometry relative="1" as="geometry">
            <mxPoint x="120" y="354.5" as="sourcePoint" />
            <mxPoint x="200" y="354.5" as="targetPoint" />
          </mxGeometry>
        </mxCell>
        <mxCell id="bA7a3gXTjvqMUb_rO1Sc-19" value="기업등록" style="rounded=0;whiteSpace=wrap;html=1;" parent="1" vertex="1">
          <mxGeometry x="200" y="335" width="80" height="40" as="geometry" />
        </mxCell>
        <mxCell id="bA7a3gXTjvqMUb_rO1Sc-20" value="" style="edgeStyle=orthogonalEdgeStyle;rounded=0;orthogonalLoop=1;jettySize=auto;html=1;" parent="1" edge="1">
          <mxGeometry relative="1" as="geometry">
            <mxPoint x="280" y="354.5" as="sourcePoint" />
            <mxPoint x="360" y="354.5" as="targetPoint" />
          </mxGeometry>
        </mxCell>
        <mxCell id="bA7a3gXTjvqMUb_rO1Sc-23" value="" style="edgeStyle=orthogonalEdgeStyle;rounded=0;orthogonalLoop=1;jettySize=auto;html=1;" parent="1" edge="1">
          <mxGeometry relative="1" as="geometry">
            <mxPoint x="400" y="410" as="sourcePoint" />
            <mxPoint x="440" y="470" as="targetPoint" />
            <Array as="points">
              <mxPoint x="400" y="390" />
              <mxPoint x="400" y="390" />
            </Array>
          </mxGeometry>
        </mxCell>
        <mxCell id="bA7a3gXTjvqMUb_rO1Sc-115" value="" style="edgeStyle=orthogonalEdgeStyle;rounded=0;orthogonalLoop=1;jettySize=auto;html=1;" parent="1" source="bA7a3gXTjvqMUb_rO1Sc-24" target="bA7a3gXTjvqMUb_rO1Sc-105" edge="1">
          <mxGeometry relative="1" as="geometry" />
        </mxCell>
        <mxCell id="bA7a3gXTjvqMUb_rO1Sc-24" value="협업요청" style="rounded=0;whiteSpace=wrap;html=1;" parent="1" vertex="1">
          <mxGeometry x="440" y="450" width="80" height="40" as="geometry" />
        </mxCell>
        <mxCell id="bA7a3gXTjvqMUb_rO1Sc-26" value="" style="shape=image;verticalLabelPosition=bottom;labelBackgroundColor=#ffffff;verticalAlign=top;aspect=fixed;imageAspect=0;image=data:image/png,iVBORw0KGgoAAAANSUhEUgAAADAAAAAmCAYAAACCjRgBAAAHOUlEQVRYCdWZZ2gVWxCAY42dxCgWrFExVhSN2HtH8I/5oUSDiopgB1ETxfJDRey9KxqTWGPBiomgInZBVOwFezf2PvIN7yx7dzfee303z7yBye7dc86c6TPnJEz+5xAWLP+fP3+Ws2fPyunTp+Xo0aMyc+ZMGTBggCQkJCj269dPwL59+yqa32acubNmzZJjx44pjXPnzsnXr1+DZcOa71eA27dvy/bt22XUqFHSrl07qVmzpoSFhYUUa9WqpbTHjBmje927d89i0N+LpwBv376V1atXK9GiRYu6mC1RooSUK1dONY5go0ePVpw4caJaZNWqVZKamqq4cuVKmTFjhiQlJVnzWINFoAEtp0KKFy8uXbp0kXXr1snHjx9/K4NLgB07dkjVqlUtovny5ZO6devKlClTZN68eXLjxg15+fKlZGVl/ZZwIIPQgNbNmzeV9tSpU6VOnTqSP39+a38svnv37mzJ+QiApow2YHru3Lly+fLlbBfn1MCVK1dkzpw5Urt2bYufZcuWeW5nCfD06VPBdAUKFFA3IFj/Nnz69EkmTZokeEHZsmXl3bt3LpYsAa5du6bSli9fPiTu4drpDz88fPhQSpUqJYUKFZJnz565qFgCXL9+XcLDw1UITLd27Vq/AeSiFsIPxMfSpUulWrVqylNUVJQ8f/7ctYOnACYOYmJiZMSIEZKeni4vXrxwLQ71h8ePH+tegwcPlujoaMv/8+TJIyVLlvQvABNbtmyphcZIboQpXbq0IBApcOHChbJkyRI5c+aMvHnzxgfxWyeQCp3zTpw4IYsWLVJaQ4cOVdqRkZEW0+xLfZg/f740bNhQvcOvBVjUuXNn3f/Dhw+qDSxQo0YNDSQjjP1ZpEgRYWOD1atXl+bNm0vHjh0VmzVrpto04zwLFy7sw6ihhwuz19ixY2Xfvn1ilBEbG6v7ByRAhw4dnAqUnz9/Cqlt69atsmLFCmWsTZs20qJFCylTpownM4Ypr2eFChXU0tDo2rWrFixoUw/YywmNGjXS2hCQAFTAYACiJ0+eDApxp2AgYAvkzZtX0A7azi2AcgjgYsWK+Q9ik0YpaOPGjRNS69+CS5cuybBhw6RgwYLqogGnUTKR8VuqMsFItjh06JDkZHV+//69Bi6tNl2v4YFnUGm0bdu2kpaWppnEToR3cjPNVv/+/WXx4sWKFLyLFy9q9ab4+EP6fzpds75Pnz5Ks1KlSj5M487t27cXmkv6MpQZUBB36tRJvYZscP78ea0JELJ3qE7B+E1bTIrE1E7Ehxnzap3ttFBQt27ddE9cyACpnXn0a07wqcRMwmW8gFPTkSNHZMuWLdqlQrR169bSqlUradCggfYqdma83jlbkBJZw9ru3burJaB5/Phxr2312+vXr2XXrl1CbXKCSwC0/Sdw69YtwT3IGlRZO/INa969e9cvaWhs3LhR1q9fLxs2bJDMzMzfrvERgIMEVZIY+K/h8OHD0rRpU584MFbEwjt37vRkyUcAWlaziODKyMiQL1++eC4M5cdp06bpvgQq52I0f+rUKdm8ebNwSouIiNDx+Ph41wWAjwAQoPe29yr16tWTIUOGyN69e+XChQuh5FtpzZ49W5nr2bOn3Llzx5M+2QceUC5PO/gIwAQC6+rVqzJo0CBLcmMVnpwVEIpx+nWDKSkp2ssQcLQKJp3yG3zw4IEGIvONO9y/f1/TI0Ht1QPZGeW9V69eKsTBgwetIZcA9mYOybdt2yaTJ0+W+vXrS8WKFZWAXSDnO9UcC9Klgrgl1dReIEeOHKkMGK06Lfvjxw/p3bu3DBw40EcwzgukYgRmDuASILs0ymSTSgnyTZs2aann/ADSmTZp0kR7d84NnCdAenpSJ2O02RRKbja+f/8uVapU0THlxPYHa5ByaWmcEBcXp0p89eqVDlkCmDMxZfzfAszRdoDZuQbVG+uNHz/e2o5TH3dB3I7QvCEENyOkVHOgp+1mHWkZsATAPJiaQOZiKqeBq0UYmTBhgrUV2cfpkuY3N4TAgQMHdM6ePXv0tyUAmiIQzQLcguMclskJ4LYBDXP+NYCW0TZ3QsYC9Ez79++3fJ7LNXg014+WAIYIQeu8/ySwyc8QQnO4SCigcePG2iOZgLTTJPgRwgnEE4FsXMolAAtobZOTkzVt2WuCsU7lypW1QyQwhw8fLtyaLV++PCAkA5EAANZA0+vWLTExUdasWeMTQ9Qi5rOnAU8BzCDPJ0+e6Fl4+vTpeuFK20u3aYT5kyeZiYz27ds3rSsoyQSlfW/7OzHAZTA3dI8ePbKG/ApgzfznhU25LcCdiBmDaJHcTar0Qv5PwDmA+dxcmxaFGkCrQAIh+3DZawcEJS5MO8FVvx2CFsC+OFTvdKDc/WBNGOUqpkePHlqwqBV85zyCCzkhVwgAUwQymuZARTXHIjwJ2gULFmhcOpnnd64RwM4c/2AxaP/u9Z4rBfBiNLtvvwA4uY2TXQ3xdAAAAABJRU5ErkJggg==;" parent="1" vertex="1">
          <mxGeometry x="320" y="219.5" width="37.89" height="30" as="geometry" />
        </mxCell>
        <mxCell id="bA7a3gXTjvqMUb_rO1Sc-27" value="" style="shape=image;verticalLabelPosition=bottom;labelBackgroundColor=#ffffff;verticalAlign=top;aspect=fixed;imageAspect=0;image=data:image/png,iVBORw0KGgoAAAANSUhEUgAAADAAAAAmCAYAAACCjRgBAAAHOUlEQVRYCdWZZ2gVWxCAY42dxCgWrFExVhSN2HtH8I/5oUSDiopgB1ETxfJDRey9KxqTWGPBiomgInZBVOwFezf2PvIN7yx7dzfee303z7yBye7dc86c6TPnJEz+5xAWLP+fP3+Ws2fPyunTp+Xo0aMyc+ZMGTBggCQkJCj269dPwL59+yqa32acubNmzZJjx44pjXPnzsnXr1+DZcOa71eA27dvy/bt22XUqFHSrl07qVmzpoSFhYUUa9WqpbTHjBmje927d89i0N+LpwBv376V1atXK9GiRYu6mC1RooSUK1dONY5go0ePVpw4caJaZNWqVZKamqq4cuVKmTFjhiQlJVnzWINFoAEtp0KKFy8uXbp0kXXr1snHjx9/K4NLgB07dkjVqlUtovny5ZO6devKlClTZN68eXLjxg15+fKlZGVl/ZZwIIPQgNbNmzeV9tSpU6VOnTqSP39+a38svnv37mzJ+QiApow2YHru3Lly+fLlbBfn1MCVK1dkzpw5Urt2bYufZcuWeW5nCfD06VPBdAUKFFA3IFj/Nnz69EkmTZokeEHZsmXl3bt3LpYsAa5du6bSli9fPiTu4drpDz88fPhQSpUqJYUKFZJnz565qFgCXL9+XcLDw1UITLd27Vq/AeSiFsIPxMfSpUulWrVqylNUVJQ8f/7ctYOnACYOYmJiZMSIEZKeni4vXrxwLQ71h8ePH+tegwcPlujoaMv/8+TJIyVLlvQvABNbtmyphcZIboQpXbq0IBApcOHChbJkyRI5c+aMvHnzxgfxWyeQCp3zTpw4IYsWLVJaQ4cOVdqRkZEW0+xLfZg/f740bNhQvcOvBVjUuXNn3f/Dhw+qDSxQo0YNDSQjjP1ZpEgRYWOD1atXl+bNm0vHjh0VmzVrpto04zwLFy7sw6ihhwuz19ixY2Xfvn1ilBEbG6v7ByRAhw4dnAqUnz9/Cqlt69atsmLFCmWsTZs20qJFCylTpownM4Ypr2eFChXU0tDo2rWrFixoUw/YywmNGjXS2hCQAFTAYACiJ0+eDApxp2AgYAvkzZtX0A7azi2AcgjgYsWK+Q9ik0YpaOPGjRNS69+CS5cuybBhw6RgwYLqogGnUTKR8VuqMsFItjh06JDkZHV+//69Bi6tNl2v4YFnUGm0bdu2kpaWppnEToR3cjPNVv/+/WXx4sWKFLyLFy9q9ab4+EP6fzpds75Pnz5Ks1KlSj5M487t27cXmkv6MpQZUBB36tRJvYZscP78ea0JELJ3qE7B+E1bTIrE1E7Ehxnzap3ttFBQt27ddE9cyACpnXn0a07wqcRMwmW8gFPTkSNHZMuWLdqlQrR169bSqlUradCggfYqdma83jlbkBJZw9ru3burJaB5/Phxr2312+vXr2XXrl1CbXKCSwC0/Sdw69YtwT3IGlRZO/INa969e9cvaWhs3LhR1q9fLxs2bJDMzMzfrvERgIMEVZIY+K/h8OHD0rRpU584MFbEwjt37vRkyUcAWlaziODKyMiQL1++eC4M5cdp06bpvgQq52I0f+rUKdm8ebNwSouIiNDx+Ph41wWAjwAQoPe29yr16tWTIUOGyN69e+XChQuh5FtpzZ49W5nr2bOn3Llzx5M+2QceUC5PO/gIwAQC6+rVqzJo0CBLcmMVnpwVEIpx+nWDKSkp2ssQcLQKJp3yG3zw4IEGIvONO9y/f1/TI0Ht1QPZGeW9V69eKsTBgwetIZcA9mYOybdt2yaTJ0+W+vXrS8WKFZWAXSDnO9UcC9Klgrgl1dReIEeOHKkMGK06Lfvjxw/p3bu3DBw40EcwzgukYgRmDuASILs0ymSTSgnyTZs2aann/ADSmTZp0kR7d84NnCdAenpSJ2O02RRKbja+f/8uVapU0THlxPYHa5ByaWmcEBcXp0p89eqVDlkCmDMxZfzfAszRdoDZuQbVG+uNHz/e2o5TH3dB3I7QvCEENyOkVHOgp+1mHWkZsATAPJiaQOZiKqeBq0UYmTBhgrUV2cfpkuY3N4TAgQMHdM6ePXv0tyUAmiIQzQLcguMclskJ4LYBDXP+NYCW0TZ3QsYC9Ez79++3fJ7LNXg014+WAIYIQeu8/ySwyc8QQnO4SCigcePG2iOZgLTTJPgRwgnEE4FsXMolAAtobZOTkzVt2WuCsU7lypW1QyQwhw8fLtyaLV++PCAkA5EAANZA0+vWLTExUdasWeMTQ9Qi5rOnAU8BzCDPJ0+e6Fl4+vTpeuFK20u3aYT5kyeZiYz27ds3rSsoyQSlfW/7OzHAZTA3dI8ePbKG/ApgzfznhU25LcCdiBmDaJHcTar0Qv5PwDmA+dxcmxaFGkCrQAIh+3DZawcEJS5MO8FVvx2CFsC+OFTvdKDc/WBNGOUqpkePHlqwqBV85zyCCzkhVwgAUwQymuZARTXHIjwJ2gULFmhcOpnnd64RwM4c/2AxaP/u9Z4rBfBiNLtvvwA4uY2TXQ3xdAAAAABJRU5ErkJggg==;" parent="1" vertex="1">
          <mxGeometry x="181.06" y="380" width="37.89" height="30" as="geometry" />
        </mxCell>
        <mxCell id="bA7a3gXTjvqMUb_rO1Sc-28" value="&lt;font style=&quot;font-size: 10px&quot;&gt;*입력정보&lt;br&gt;&lt;/font&gt;&lt;p style=&quot;margin-top: 0pt ; margin-bottom: 0pt ; margin-left: 0in ; text-indent: 0in ; direction: ltr ; unicode-bidi: embed&quot;&gt;&lt;font style=&quot;font-size: 10px&quot;&gt;&lt;span style=&quot;font-family: &amp;#34;맑은 고딕&amp;#34;&quot;&gt;과제명&lt;/span&gt;&lt;span style=&quot;font-family: &amp;#34;맑은 고딕&amp;#34;&quot;&gt;, &lt;/span&gt;&lt;span style=&quot;font-family: &amp;#34;맑은 고딕&amp;#34;&quot;&gt;과제&amp;nbsp;&lt;/span&gt;&lt;span style=&quot;font-family: &amp;#34;맑은 고딕&amp;#34;&quot;&gt;한줄소개&lt;/span&gt;&lt;span style=&quot;font-family: &amp;#34;맑은 고딕&amp;#34;&quot;&gt;&amp;nbsp;&lt;/span&gt;&lt;/font&gt;&lt;/p&gt;&lt;p style=&quot;margin-top: 0pt ; margin-bottom: 0pt ; margin-left: 0in ; text-indent: 0in ; direction: ltr ; unicode-bidi: embed&quot;&gt;&lt;span style=&quot;font-size: 10px ; text-indent: 0in ; font-family: &amp;#34;맑은 고딕&amp;#34;&quot;&gt;신청기간&lt;/span&gt;&lt;span style=&quot;font-size: 10px ; text-indent: 0in ; font-family: &amp;#34;맑은 고딕&amp;#34;&quot;&gt;, &lt;/span&gt;&lt;span style=&quot;font-size: 10px ; text-indent: 0in ; font-family: &amp;#34;맑은 고딕&amp;#34;&quot;&gt;협업희망기술&lt;/span&gt;&lt;span style=&quot;font-size: 10px ; text-indent: 0in ; font-family: &amp;#34;맑은 고딕&amp;#34;&quot;&gt;,&amp;nbsp;&lt;/span&gt;&lt;/p&gt;&lt;p style=&quot;margin-top: 0pt ; margin-bottom: 0pt ; margin-left: 0in ; text-indent: 0in ; direction: ltr ; unicode-bidi: embed&quot;&gt;&lt;span style=&quot;font-size: 10px ; text-indent: 0in ; font-family: &amp;#34;맑은 고딕&amp;#34;&quot;&gt;과제소개&amp;nbsp;&lt;/span&gt;&lt;span style=&quot;font-size: 10px ; text-indent: 0in ; font-family: &amp;#34;맑은 고딕&amp;#34;&quot;&gt;이미지&lt;/span&gt;&lt;/p&gt;" style="text;html=1;resizable=0;autosize=1;align=left;verticalAlign=middle;points=[];fillColor=none;strokeColor=none;rounded=0;" parent="1" vertex="1">
          <mxGeometry x="357.89" y="224.5" width="130" height="60" as="geometry" />
        </mxCell>
        <mxCell id="bA7a3gXTjvqMUb_rO1Sc-29" value="&lt;font style=&quot;font-size: 10px&quot;&gt;*입력정보&lt;br&gt;&lt;/font&gt;&lt;p style=&quot;margin-top: 0pt ; margin-bottom: 0pt ; margin-left: 0in ; text-indent: 0in ; direction: ltr ; unicode-bidi: embed&quot;&gt;&lt;font style=&quot;font-size: 10px&quot;&gt;&lt;span style=&quot;font-family: &amp;#34;맑은 고딕&amp;#34;&quot;&gt;협업요청여부, &lt;/span&gt;&lt;span style=&quot;font-family: &amp;#34;맑은 고딕&amp;#34;&quot;&gt;기업명&lt;/span&gt;&lt;span style=&quot;font-family: &amp;#34;맑은 고딕&amp;#34;&quot;&gt;, 기업&lt;/span&gt;&lt;span style=&quot;font-family: &amp;#34;맑은 고딕&amp;#34;&quot;&gt;&amp;nbsp;&lt;/span&gt;&lt;span style=&quot;font-family: &amp;#34;맑은 고딕&amp;#34;&quot;&gt;한줄소개&lt;/span&gt;&lt;span style=&quot;font-family: &amp;#34;맑은 고딕&amp;#34;&quot;&gt;,&amp;nbsp;&lt;/span&gt;&lt;/font&gt;&lt;/p&gt;&lt;p style=&quot;margin-top: 0pt ; margin-bottom: 0pt ; margin-left: 0in ; text-indent: 0in ; direction: ltr ; unicode-bidi: embed&quot;&gt;&lt;font style=&quot;font-size: 10px&quot;&gt;&lt;span style=&quot;font-family: &amp;#34;맑은 고딕&amp;#34;&quot;&gt;기업소개 이미지, 로고이미지, 비즈니스분야, 활용기술,&amp;nbsp;&lt;/span&gt;&lt;/font&gt;&lt;/p&gt;&lt;p style=&quot;margin-top: 0pt ; margin-bottom: 0pt ; margin-left: 0in ; text-indent: 0in ; direction: ltr ; unicode-bidi: embed&quot;&gt;&lt;span style=&quot;font-family: &amp;#34;맑은 고딕&amp;#34; ; font-size: 10px ; text-indent: 0in&quot;&gt;대표자명, 기업설립일,&amp;nbsp;&lt;/span&gt;&lt;span style=&quot;font-family: &amp;#34;맑은 고딕&amp;#34; ; font-size: 10px ; text-indent: 0in&quot;&gt;홈페이지, 실 주소, 국가, 사업자등록번호,&lt;/span&gt;&lt;/p&gt;&lt;p style=&quot;margin-top: 0pt ; margin-bottom: 0pt ; margin-left: 0in ; text-indent: 0in ; direction: ltr ; unicode-bidi: embed&quot;&gt;&lt;font face=&quot;맑은 고딕&quot;&gt;&lt;span style=&quot;font-size: 10px&quot;&gt;IR자료/사업계획서, 직원수&lt;/span&gt;&lt;/font&gt;&lt;/p&gt;" style="text;html=1;resizable=0;autosize=1;align=center;verticalAlign=middle;points=[];fillColor=none;strokeColor=none;rounded=0;" parent="1" vertex="1">
          <mxGeometry x="50" y="410.5" width="300" height="80" as="geometry" />
        </mxCell>
        <mxCell id="bA7a3gXTjvqMUb_rO1Sc-32" value="상대방 &lt;br&gt;요청수락여부" style="rhombus;whiteSpace=wrap;html=1;" parent="1" vertex="1">
          <mxGeometry x="867.89" y="29.5" width="80" height="70" as="geometry" />
        </mxCell>
        <mxCell id="bA7a3gXTjvqMUb_rO1Sc-33" value="" style="edgeStyle=orthogonalEdgeStyle;rounded=0;orthogonalLoop=1;jettySize=auto;html=1;entryX=0;entryY=0.5;entryDx=0;entryDy=0;" parent="1" edge="1">
          <mxGeometry relative="1" as="geometry">
            <mxPoint x="947.8899999999999" y="64" as="sourcePoint" />
            <mxPoint x="1020" y="64.5" as="targetPoint" />
            <Array as="points">
              <mxPoint x="1010" y="65" />
              <mxPoint x="1010" y="65" />
            </Array>
          </mxGeometry>
        </mxCell>
        <mxCell id="bA7a3gXTjvqMUb_rO1Sc-34" value="Yes" style="text;html=1;resizable=0;autosize=1;align=center;verticalAlign=middle;points=[];fillColor=none;strokeColor=none;rounded=0;" parent="1" vertex="1">
          <mxGeometry x="939.9999999999999" y="70" width="30" height="20" as="geometry" />
        </mxCell>
        <mxCell id="bA7a3gXTjvqMUb_rO1Sc-35" value="No" style="text;html=1;resizable=0;autosize=1;align=center;verticalAlign=middle;points=[];fillColor=none;strokeColor=none;rounded=0;" parent="1" vertex="1">
          <mxGeometry x="917.8899999999999" y="94.5" width="30" height="20" as="geometry" />
        </mxCell>
        <mxCell id="bA7a3gXTjvqMUb_rO1Sc-38" value="" style="endArrow=none;html=1;" parent="1" edge="1">
          <mxGeometry width="50" height="50" relative="1" as="geometry">
            <mxPoint x="907.8899999999999" y="129.5" as="sourcePoint" />
            <mxPoint x="907.3899999999999" y="99.5" as="targetPoint" />
          </mxGeometry>
        </mxCell>
        <mxCell id="bA7a3gXTjvqMUb_rO1Sc-39" value="" style="endArrow=none;html=1;" parent="1" edge="1">
          <mxGeometry width="50" height="50" relative="1" as="geometry">
            <mxPoint x="567.89" y="129.5" as="sourcePoint" />
            <mxPoint x="907.8899999999999" y="129.5" as="targetPoint" />
          </mxGeometry>
        </mxCell>
        <mxCell id="bA7a3gXTjvqMUb_rO1Sc-40" value="" style="endArrow=classic;html=1;" parent="1" edge="1">
          <mxGeometry width="50" height="50" relative="1" as="geometry">
            <mxPoint x="567.89" y="129.5" as="sourcePoint" />
            <mxPoint x="567.39" y="84.5" as="targetPoint" />
          </mxGeometry>
        </mxCell>
        <mxCell id="bA7a3gXTjvqMUb_rO1Sc-42" value="" style="edgeStyle=orthogonalEdgeStyle;rounded=0;orthogonalLoop=1;jettySize=auto;html=1;" parent="1" edge="1">
          <mxGeometry relative="1" as="geometry">
            <mxPoint x="777.89" y="199" as="sourcePoint" />
            <mxPoint x="867.89" y="199" as="targetPoint" />
            <Array as="points">
              <mxPoint x="817.89" y="199.5" />
              <mxPoint x="817.89" y="199.5" />
            </Array>
          </mxGeometry>
        </mxCell>
        <mxCell id="bA7a3gXTjvqMUb_rO1Sc-43" value="Yes" style="text;html=1;resizable=0;autosize=1;align=center;verticalAlign=middle;points=[];fillColor=none;strokeColor=none;rounded=0;" parent="1" vertex="1">
          <mxGeometry x="775" y="204.5" width="30" height="20" as="geometry" />
        </mxCell>
        <mxCell id="bA7a3gXTjvqMUb_rO1Sc-47" value="협업요청" style="rounded=0;whiteSpace=wrap;html=1;" parent="1" vertex="1">
          <mxGeometry x="527.89" y="179.5" width="80" height="40" as="geometry" />
        </mxCell>
        <mxCell id="bA7a3gXTjvqMUb_rO1Sc-48" value="" style="edgeStyle=orthogonalEdgeStyle;rounded=0;orthogonalLoop=1;jettySize=auto;html=1;" parent="1" edge="1">
          <mxGeometry relative="1" as="geometry">
            <mxPoint x="607.89" y="199.5" as="sourcePoint" />
            <mxPoint x="697.89" y="199.5" as="targetPoint" />
            <Array as="points">
              <mxPoint x="647.89" y="200" />
              <mxPoint x="647.89" y="200" />
            </Array>
          </mxGeometry>
        </mxCell>
        <mxCell id="bA7a3gXTjvqMUb_rO1Sc-49" value="협업요청 &lt;br&gt;수락여부" style="rhombus;whiteSpace=wrap;html=1;" parent="1" vertex="1">
          <mxGeometry x="697.89" y="164.5" width="80" height="70" as="geometry" />
        </mxCell>
        <mxCell id="bA7a3gXTjvqMUb_rO1Sc-50" value="No" style="text;html=1;resizable=0;autosize=1;align=center;verticalAlign=middle;points=[];fillColor=none;strokeColor=none;rounded=0;" parent="1" vertex="1">
          <mxGeometry x="752.89" y="224.5" width="30" height="20" as="geometry" />
        </mxCell>
        <mxCell id="bA7a3gXTjvqMUb_rO1Sc-51" value="" style="endArrow=none;html=1;" parent="1" edge="1">
          <mxGeometry width="50" height="50" relative="1" as="geometry">
            <mxPoint x="737.89" y="279.5" as="sourcePoint" />
            <mxPoint x="737.39" y="234.5" as="targetPoint" />
          </mxGeometry>
        </mxCell>
        <mxCell id="bA7a3gXTjvqMUb_rO1Sc-52" value="" style="endArrow=none;html=1;" parent="1" edge="1">
          <mxGeometry width="50" height="50" relative="1" as="geometry">
            <mxPoint x="567.89" y="279.5" as="sourcePoint" />
            <mxPoint x="737.89" y="279.5" as="targetPoint" />
          </mxGeometry>
        </mxCell>
        <mxCell id="bA7a3gXTjvqMUb_rO1Sc-53" value="" style="endArrow=classic;html=1;" parent="1" edge="1">
          <mxGeometry width="50" height="50" relative="1" as="geometry">
            <mxPoint x="567.39" y="279.5" as="sourcePoint" />
            <mxPoint x="567.39" y="219.5" as="targetPoint" />
          </mxGeometry>
        </mxCell>
        <mxCell id="bA7a3gXTjvqMUb_rO1Sc-55" value="협업제안&lt;br&gt;주체여부" style="rhombus;whiteSpace=wrap;html=1;" parent="1" vertex="1">
          <mxGeometry x="360" y="320" width="80" height="70" as="geometry" />
        </mxCell>
        <mxCell id="bA7a3gXTjvqMUb_rO1Sc-56" value="" style="edgeStyle=orthogonalEdgeStyle;rounded=0;orthogonalLoop=1;jettySize=auto;html=1;" parent="1" edge="1">
          <mxGeometry relative="1" as="geometry">
            <mxPoint x="440" y="354.5" as="sourcePoint" />
            <mxPoint x="520" y="354.5" as="targetPoint" />
          </mxGeometry>
        </mxCell>
        <mxCell id="bA7a3gXTjvqMUb_rO1Sc-57" value="Yes" style="text;html=1;resizable=0;autosize=1;align=center;verticalAlign=middle;points=[];fillColor=none;strokeColor=none;rounded=0;" parent="1" vertex="1">
          <mxGeometry x="440" y="330" width="30" height="20" as="geometry" />
        </mxCell>
        <mxCell id="bA7a3gXTjvqMUb_rO1Sc-58" value="No" style="text;html=1;resizable=0;autosize=1;align=center;verticalAlign=middle;points=[];fillColor=none;strokeColor=none;rounded=0;" parent="1" vertex="1">
          <mxGeometry x="400" y="385" width="30" height="20" as="geometry" />
        </mxCell>
        <mxCell id="bA7a3gXTjvqMUb_rO1Sc-65" value="기업등록" style="rounded=0;whiteSpace=wrap;html=1;" parent="1" vertex="1">
          <mxGeometry x="200" y="45" width="80" height="40" as="geometry" />
        </mxCell>
        <mxCell id="bA7a3gXTjvqMUb_rO1Sc-67" value="" style="shape=image;verticalLabelPosition=bottom;labelBackgroundColor=#ffffff;verticalAlign=top;aspect=fixed;imageAspect=0;image=data:image/png,iVBORw0KGgoAAAANSUhEUgAAADAAAAAmCAYAAACCjRgBAAAHOUlEQVRYCdWZZ2gVWxCAY42dxCgWrFExVhSN2HtH8I/5oUSDiopgB1ETxfJDRey9KxqTWGPBiomgInZBVOwFezf2PvIN7yx7dzfee303z7yBye7dc86c6TPnJEz+5xAWLP+fP3+Ws2fPyunTp+Xo0aMyc+ZMGTBggCQkJCj269dPwL59+yqa32acubNmzZJjx44pjXPnzsnXr1+DZcOa71eA27dvy/bt22XUqFHSrl07qVmzpoSFhYUUa9WqpbTHjBmje927d89i0N+LpwBv376V1atXK9GiRYu6mC1RooSUK1dONY5go0ePVpw4caJaZNWqVZKamqq4cuVKmTFjhiQlJVnzWINFoAEtp0KKFy8uXbp0kXXr1snHjx9/K4NLgB07dkjVqlUtovny5ZO6devKlClTZN68eXLjxg15+fKlZGVl/ZZwIIPQgNbNmzeV9tSpU6VOnTqSP39+a38svnv37mzJ+QiApow2YHru3Lly+fLlbBfn1MCVK1dkzpw5Urt2bYufZcuWeW5nCfD06VPBdAUKFFA3IFj/Nnz69EkmTZokeEHZsmXl3bt3LpYsAa5du6bSli9fPiTu4drpDz88fPhQSpUqJYUKFZJnz565qFgCXL9+XcLDw1UITLd27Vq/AeSiFsIPxMfSpUulWrVqylNUVJQ8f/7ctYOnACYOYmJiZMSIEZKeni4vXrxwLQ71h8ePH+tegwcPlujoaMv/8+TJIyVLlvQvABNbtmyphcZIboQpXbq0IBApcOHChbJkyRI5c+aMvHnzxgfxWyeQCp3zTpw4IYsWLVJaQ4cOVdqRkZEW0+xLfZg/f740bNhQvcOvBVjUuXNn3f/Dhw+qDSxQo0YNDSQjjP1ZpEgRYWOD1atXl+bNm0vHjh0VmzVrpto04zwLFy7sw6ihhwuz19ixY2Xfvn1ilBEbG6v7ByRAhw4dnAqUnz9/Cqlt69atsmLFCmWsTZs20qJFCylTpownM4Ypr2eFChXU0tDo2rWrFixoUw/YywmNGjXS2hCQAFTAYACiJ0+eDApxp2AgYAvkzZtX0A7azi2AcgjgYsWK+Q9ik0YpaOPGjRNS69+CS5cuybBhw6RgwYLqogGnUTKR8VuqMsFItjh06JDkZHV+//69Bi6tNl2v4YFnUGm0bdu2kpaWppnEToR3cjPNVv/+/WXx4sWKFLyLFy9q9ab4+EP6fzpds75Pnz5Ks1KlSj5M487t27cXmkv6MpQZUBB36tRJvYZscP78ea0JELJ3qE7B+E1bTIrE1E7Ehxnzap3ttFBQt27ddE9cyACpnXn0a07wqcRMwmW8gFPTkSNHZMuWLdqlQrR169bSqlUradCggfYqdma83jlbkBJZw9ru3burJaB5/Phxr2312+vXr2XXrl1CbXKCSwC0/Sdw69YtwT3IGlRZO/INa969e9cvaWhs3LhR1q9fLxs2bJDMzMzfrvERgIMEVZIY+K/h8OHD0rRpU584MFbEwjt37vRkyUcAWlaziODKyMiQL1++eC4M5cdp06bpvgQq52I0f+rUKdm8ebNwSouIiNDx+Ph41wWAjwAQoPe29yr16tWTIUOGyN69e+XChQuh5FtpzZ49W5nr2bOn3Llzx5M+2QceUC5PO/gIwAQC6+rVqzJo0CBLcmMVnpwVEIpx+nWDKSkp2ssQcLQKJp3yG3zw4IEGIvONO9y/f1/TI0Ht1QPZGeW9V69eKsTBgwetIZcA9mYOybdt2yaTJ0+W+vXrS8WKFZWAXSDnO9UcC9Klgrgl1dReIEeOHKkMGK06Lfvjxw/p3bu3DBw40EcwzgukYgRmDuASILs0ymSTSgnyTZs2aann/ADSmTZp0kR7d84NnCdAenpSJ2O02RRKbja+f/8uVapU0THlxPYHa5ByaWmcEBcXp0p89eqVDlkCmDMxZfzfAszRdoDZuQbVG+uNHz/e2o5TH3dB3I7QvCEENyOkVHOgp+1mHWkZsATAPJiaQOZiKqeBq0UYmTBhgrUV2cfpkuY3N4TAgQMHdM6ePXv0tyUAmiIQzQLcguMclskJ4LYBDXP+NYCW0TZ3QsYC9Ez79++3fJ7LNXg014+WAIYIQeu8/ySwyc8QQnO4SCigcePG2iOZgLTTJPgRwgnEE4FsXMolAAtobZOTkzVt2WuCsU7lypW1QyQwhw8fLtyaLV++PCAkA5EAANZA0+vWLTExUdasWeMTQ9Qi5rOnAU8BzCDPJ0+e6Fl4+vTpeuFK20u3aYT5kyeZiYz27ds3rSsoyQSlfW/7OzHAZTA3dI8ePbKG/ApgzfznhU25LcCdiBmDaJHcTar0Qv5PwDmA+dxcmxaFGkCrQAIh+3DZawcEJS5MO8FVvx2CFsC+OFTvdKDc/WBNGOUqpkePHlqwqBV85zyCCzkhVwgAUwQymuZARTXHIjwJ2gULFmhcOpnnd64RwM4c/2AxaP/u9Z4rBfBiNLtvvwA4uY2TXQ3xdAAAAABJRU5ErkJggg==;" parent="1" vertex="1">
          <mxGeometry x="191.06" y="89.5" width="37.89" height="30" as="geometry" />
        </mxCell>
        <mxCell id="bA7a3gXTjvqMUb_rO1Sc-68" value="&lt;font style=&quot;font-size: 10px&quot;&gt;*입력정보&lt;br&gt;&lt;/font&gt;&lt;p style=&quot;margin-top: 0pt ; margin-bottom: 0pt ; margin-left: 0in ; text-indent: 0in ; direction: ltr ; unicode-bidi: embed&quot;&gt;&lt;font style=&quot;font-size: 10px&quot;&gt;&lt;span style=&quot;font-family: &amp;#34;맑은 고딕&amp;#34;&quot;&gt;협업요청여부, &lt;/span&gt;&lt;span style=&quot;font-family: &amp;#34;맑은 고딕&amp;#34;&quot;&gt;기업명&lt;/span&gt;&lt;span style=&quot;font-family: &amp;#34;맑은 고딕&amp;#34;&quot;&gt;, 기업&lt;/span&gt;&lt;span style=&quot;font-family: &amp;#34;맑은 고딕&amp;#34;&quot;&gt;&amp;nbsp;&lt;/span&gt;&lt;span style=&quot;font-family: &amp;#34;맑은 고딕&amp;#34;&quot;&gt;한줄소개&lt;/span&gt;&lt;span style=&quot;font-family: &amp;#34;맑은 고딕&amp;#34;&quot;&gt;,&amp;nbsp;&lt;/span&gt;&lt;/font&gt;&lt;/p&gt;&lt;p style=&quot;margin-top: 0pt ; margin-bottom: 0pt ; margin-left: 0in ; text-indent: 0in ; direction: ltr ; unicode-bidi: embed&quot;&gt;&lt;font style=&quot;font-size: 10px&quot;&gt;&lt;span style=&quot;font-family: &amp;#34;맑은 고딕&amp;#34;&quot;&gt;기업소개 이미지, 로고이미지, 비즈니스분야, 활용기술,&amp;nbsp;&lt;/span&gt;&lt;/font&gt;&lt;/p&gt;&lt;p style=&quot;margin-top: 0pt ; margin-bottom: 0pt ; margin-left: 0in ; text-indent: 0in ; direction: ltr ; unicode-bidi: embed&quot;&gt;&lt;span style=&quot;font-family: &amp;#34;맑은 고딕&amp;#34; ; font-size: 10px ; text-indent: 0in&quot;&gt;대표자명, 기업설립일,&amp;nbsp;&lt;/span&gt;&lt;span style=&quot;font-family: &amp;#34;맑은 고딕&amp;#34; ; font-size: 10px ; text-indent: 0in&quot;&gt;홈페이지, 실 주소, 국가, 사업자등록번호,&amp;nbsp;&lt;/span&gt;&lt;/p&gt;&lt;p style=&quot;margin-top: 0pt ; margin-bottom: 0pt ; margin-left: 0in ; text-indent: 0in ; direction: ltr ; unicode-bidi: embed&quot;&gt;&lt;span style=&quot;font-family: &amp;#34;맑은 고딕&amp;#34; ; font-size: 10px ; text-indent: 0in&quot;&gt;IR자료/사업계획서, 직원수&lt;/span&gt;&lt;/p&gt;" style="text;html=1;resizable=0;autosize=1;align=center;verticalAlign=middle;points=[];fillColor=none;strokeColor=none;rounded=0;" parent="1" vertex="1">
          <mxGeometry x="60" y="114.5" width="300" height="80" as="geometry" />
        </mxCell>
        <mxCell id="bA7a3gXTjvqMUb_rO1Sc-69" value="" style="edgeStyle=orthogonalEdgeStyle;rounded=0;orthogonalLoop=1;jettySize=auto;html=1;" parent="1" edge="1">
          <mxGeometry relative="1" as="geometry">
            <mxPoint x="360" y="64.5" as="targetPoint" />
            <mxPoint x="280" y="64.5" as="sourcePoint" />
          </mxGeometry>
        </mxCell>
        <mxCell id="bA7a3gXTjvqMUb_rO1Sc-74" value="기업자료검토" style="text;html=1;resizable=0;autosize=1;align=center;verticalAlign=middle;points=[];fillColor=none;strokeColor=none;rounded=0;" parent="1" vertex="1">
          <mxGeometry x="782.89" y="39.5" width="90" height="20" as="geometry" />
        </mxCell>
        <mxCell id="bA7a3gXTjvqMUb_rO1Sc-76" value="미팅제안(달력)" style="text;html=1;resizable=0;autosize=1;align=center;verticalAlign=middle;points=[];fillColor=none;strokeColor=none;rounded=0;" parent="1" vertex="1">
          <mxGeometry x="932.8899999999999" y="30" width="100" height="20" as="geometry" />
        </mxCell>
        <mxCell id="bA7a3gXTjvqMUb_rO1Sc-79" value="" style="edgeStyle=orthogonalEdgeStyle;rounded=0;orthogonalLoop=1;jettySize=auto;html=1;" parent="1" source="bA7a3gXTjvqMUb_rO1Sc-77" target="bA7a3gXTjvqMUb_rO1Sc-78" edge="1">
          <mxGeometry relative="1" as="geometry" />
        </mxCell>
        <mxCell id="bA7a3gXTjvqMUb_rO1Sc-81" style="edgeStyle=orthogonalEdgeStyle;rounded=0;orthogonalLoop=1;jettySize=auto;html=1;" parent="1" source="bA7a3gXTjvqMUb_rO1Sc-77" target="bA7a3gXTjvqMUb_rO1Sc-3" edge="1">
          <mxGeometry relative="1" as="geometry">
            <Array as="points">
              <mxPoint x="1060" y="150" />
              <mxPoint x="550" y="150" />
            </Array>
          </mxGeometry>
        </mxCell>
        <mxCell id="bA7a3gXTjvqMUb_rO1Sc-77" value="미팅요청&lt;br&gt;수락여부" style="rhombus;whiteSpace=wrap;html=1;" parent="1" vertex="1">
          <mxGeometry x="1020" y="29.5" width="80" height="70" as="geometry" />
        </mxCell>
        <mxCell id="bA7a3gXTjvqMUb_rO1Sc-78" value="협업확정" style="rounded=0;whiteSpace=wrap;html=1;" parent="1" vertex="1">
          <mxGeometry x="1149.9999999999998" y="45" width="80" height="40" as="geometry" />
        </mxCell>
        <mxCell id="bA7a3gXTjvqMUb_rO1Sc-80" value="Yes" style="text;html=1;resizable=0;autosize=1;align=center;verticalAlign=middle;points=[];fillColor=none;strokeColor=none;rounded=0;" parent="1" vertex="1">
          <mxGeometry x="1100" y="74.5" width="30" height="20" as="geometry" />
        </mxCell>
        <mxCell id="bA7a3gXTjvqMUb_rO1Sc-82" value="No" style="text;html=1;resizable=0;autosize=1;align=center;verticalAlign=middle;points=[];fillColor=none;strokeColor=none;rounded=0;" parent="1" vertex="1">
          <mxGeometry x="1062.8899999999999" y="94.5" width="30" height="20" as="geometry" />
        </mxCell>
        <mxCell id="bA7a3gXTjvqMUb_rO1Sc-83" value="" style="edgeStyle=orthogonalEdgeStyle;rounded=0;orthogonalLoop=1;jettySize=auto;html=1;" parent="1" source="bA7a3gXTjvqMUb_rO1Sc-84" target="bA7a3gXTjvqMUb_rO1Sc-85" edge="1">
          <mxGeometry relative="1" as="geometry" />
        </mxCell>
        <mxCell id="bA7a3gXTjvqMUb_rO1Sc-88" style="edgeStyle=orthogonalEdgeStyle;rounded=0;orthogonalLoop=1;jettySize=auto;html=1;entryX=0.25;entryY=1;entryDx=0;entryDy=0;" parent="1" source="bA7a3gXTjvqMUb_rO1Sc-84" target="bA7a3gXTjvqMUb_rO1Sc-47" edge="1">
          <mxGeometry relative="1" as="geometry">
            <Array as="points">
              <mxPoint x="908" y="290" />
              <mxPoint x="548" y="290" />
            </Array>
          </mxGeometry>
        </mxCell>
        <mxCell id="bA7a3gXTjvqMUb_rO1Sc-84" value="미팅요청&lt;br&gt;수락여부" style="rhombus;whiteSpace=wrap;html=1;" parent="1" vertex="1">
          <mxGeometry x="867.89" y="164.5" width="80" height="70" as="geometry" />
        </mxCell>
        <mxCell id="bA7a3gXTjvqMUb_rO1Sc-85" value="협업확정" style="rounded=0;whiteSpace=wrap;html=1;" parent="1" vertex="1">
          <mxGeometry x="997.8899999999998" y="180" width="80" height="40" as="geometry" />
        </mxCell>
        <mxCell id="bA7a3gXTjvqMUb_rO1Sc-86" value="Yes" style="text;html=1;resizable=0;autosize=1;align=center;verticalAlign=middle;points=[];fillColor=none;strokeColor=none;rounded=0;" parent="1" vertex="1">
          <mxGeometry x="940.78" y="209.5" width="30" height="20" as="geometry" />
        </mxCell>
        <mxCell id="bA7a3gXTjvqMUb_rO1Sc-87" value="No" style="text;html=1;resizable=0;autosize=1;align=center;verticalAlign=middle;points=[];fillColor=none;strokeColor=none;rounded=0;" parent="1" vertex="1">
          <mxGeometry x="910.7799999999999" y="229.5" width="30" height="20" as="geometry" />
        </mxCell>
        <mxCell id="bA7a3gXTjvqMUb_rO1Sc-89" value="기업자료전달" style="text;html=1;resizable=0;autosize=1;align=center;verticalAlign=middle;points=[];fillColor=none;strokeColor=none;rounded=0;" parent="1" vertex="1">
          <mxGeometry x="610" y="174.5" width="90" height="20" as="geometry" />
        </mxCell>
        <mxCell id="bA7a3gXTjvqMUb_rO1Sc-90" value="미팅요청(달력)" style="text;html=1;resizable=0;autosize=1;align=center;verticalAlign=middle;points=[];fillColor=none;strokeColor=none;rounded=0;" parent="1" vertex="1">
          <mxGeometry x="777.8899999999999" y="174.5" width="100" height="20" as="geometry" />
        </mxCell>
        <mxCell id="bA7a3gXTjvqMUb_rO1Sc-102" value="" style="edgeStyle=orthogonalEdgeStyle;rounded=0;orthogonalLoop=1;jettySize=auto;html=1;" parent="1" source="bA7a3gXTjvqMUb_rO1Sc-91" target="bA7a3gXTjvqMUb_rO1Sc-92" edge="1">
          <mxGeometry relative="1" as="geometry" />
        </mxCell>
        <mxCell id="bA7a3gXTjvqMUb_rO1Sc-91" value="기업탐색" style="rounded=0;whiteSpace=wrap;html=1;" parent="1" vertex="1">
          <mxGeometry x="520" y="335" width="80" height="40" as="geometry" />
        </mxCell>
        <mxCell id="bA7a3gXTjvqMUb_rO1Sc-92" value="협업제안" style="rounded=0;whiteSpace=wrap;html=1;" parent="1" vertex="1">
          <mxGeometry x="682.89" y="335" width="80" height="40" as="geometry" />
        </mxCell>
        <mxCell id="bA7a3gXTjvqMUb_rO1Sc-93" value="" style="edgeStyle=orthogonalEdgeStyle;rounded=0;orthogonalLoop=1;jettySize=auto;html=1;" parent="1" edge="1">
          <mxGeometry relative="1" as="geometry">
            <mxPoint x="762.8899999999999" y="354.5" as="sourcePoint" />
            <mxPoint x="852.8899999999999" y="354.5" as="targetPoint" />
            <Array as="points">
              <mxPoint x="802.89" y="355" />
              <mxPoint x="802.89" y="355" />
            </Array>
          </mxGeometry>
        </mxCell>
        <mxCell id="ifrvBTRP1nAYDAHsDfMw-3" style="edgeStyle=orthogonalEdgeStyle;rounded=0;orthogonalLoop=1;jettySize=auto;html=1;entryX=0.5;entryY=1;entryDx=0;entryDy=0;" edge="1" parent="1" source="bA7a3gXTjvqMUb_rO1Sc-94" target="bA7a3gXTjvqMUb_rO1Sc-91">
          <mxGeometry relative="1" as="geometry">
            <Array as="points">
              <mxPoint x="893" y="410" />
              <mxPoint x="560" y="410" />
            </Array>
          </mxGeometry>
        </mxCell>
        <mxCell id="bA7a3gXTjvqMUb_rO1Sc-94" value="상대방 &lt;br&gt;요청수락여부" style="rhombus;whiteSpace=wrap;html=1;" parent="1" vertex="1">
          <mxGeometry x="852.89" y="320" width="80" height="70" as="geometry" />
        </mxCell>
        <mxCell id="bA7a3gXTjvqMUb_rO1Sc-95" value="" style="edgeStyle=orthogonalEdgeStyle;rounded=0;orthogonalLoop=1;jettySize=auto;html=1;entryX=0;entryY=0.5;entryDx=0;entryDy=0;" parent="1" edge="1">
          <mxGeometry relative="1" as="geometry">
            <mxPoint x="932.8899999999999" y="354.5" as="sourcePoint" />
            <mxPoint x="1005" y="355" as="targetPoint" />
            <Array as="points">
              <mxPoint x="995" y="355.5" />
              <mxPoint x="995" y="355.5" />
            </Array>
          </mxGeometry>
        </mxCell>
        <mxCell id="bA7a3gXTjvqMUb_rO1Sc-96" value="Yes" style="text;html=1;resizable=0;autosize=1;align=center;verticalAlign=middle;points=[];fillColor=none;strokeColor=none;rounded=0;" parent="1" vertex="1">
          <mxGeometry x="924.9999999999999" y="360.5" width="30" height="20" as="geometry" />
        </mxCell>
        <mxCell id="bA7a3gXTjvqMUb_rO1Sc-97" value="기업자료검토" style="text;html=1;resizable=0;autosize=1;align=center;verticalAlign=middle;points=[];fillColor=none;strokeColor=none;rounded=0;" parent="1" vertex="1">
          <mxGeometry x="767.89" y="330" width="90" height="20" as="geometry" />
        </mxCell>
        <mxCell id="bA7a3gXTjvqMUb_rO1Sc-98" value="" style="edgeStyle=orthogonalEdgeStyle;rounded=0;orthogonalLoop=1;jettySize=auto;html=1;" parent="1" source="bA7a3gXTjvqMUb_rO1Sc-99" target="bA7a3gXTjvqMUb_rO1Sc-100" edge="1">
          <mxGeometry relative="1" as="geometry" />
        </mxCell>
        <mxCell id="ifrvBTRP1nAYDAHsDfMw-5" style="edgeStyle=orthogonalEdgeStyle;rounded=0;orthogonalLoop=1;jettySize=auto;html=1;entryX=0.25;entryY=1;entryDx=0;entryDy=0;" edge="1" parent="1" source="bA7a3gXTjvqMUb_rO1Sc-99" target="bA7a3gXTjvqMUb_rO1Sc-91">
          <mxGeometry relative="1" as="geometry">
            <Array as="points">
              <mxPoint x="1045" y="430" />
              <mxPoint x="540" y="430" />
            </Array>
          </mxGeometry>
        </mxCell>
        <mxCell id="bA7a3gXTjvqMUb_rO1Sc-99" value="미팅요청&lt;br&gt;수락여부" style="rhombus;whiteSpace=wrap;html=1;" parent="1" vertex="1">
          <mxGeometry x="1005" y="320" width="80" height="70" as="geometry" />
        </mxCell>
        <mxCell id="bA7a3gXTjvqMUb_rO1Sc-100" value="협업확정" style="rounded=0;whiteSpace=wrap;html=1;" parent="1" vertex="1">
          <mxGeometry x="1134.9999999999998" y="335.5" width="80" height="40" as="geometry" />
        </mxCell>
        <mxCell id="bA7a3gXTjvqMUb_rO1Sc-101" value="Yes" style="text;html=1;resizable=0;autosize=1;align=center;verticalAlign=middle;points=[];fillColor=none;strokeColor=none;rounded=0;" parent="1" vertex="1">
          <mxGeometry x="1085" y="365" width="30" height="20" as="geometry" />
        </mxCell>
        <mxCell id="bA7a3gXTjvqMUb_rO1Sc-103" value="" style="edgeStyle=orthogonalEdgeStyle;rounded=0;orthogonalLoop=1;jettySize=auto;html=1;" parent="1" edge="1">
          <mxGeometry relative="1" as="geometry">
            <mxPoint x="669.9999999999999" y="469.5" as="sourcePoint" />
            <mxPoint x="759.9999999999999" y="469.5" as="targetPoint" />
            <Array as="points">
              <mxPoint x="710" y="470" />
              <mxPoint x="710" y="470" />
            </Array>
          </mxGeometry>
        </mxCell>
        <mxCell id="bA7a3gXTjvqMUb_rO1Sc-104" value="Yes" style="text;html=1;resizable=0;autosize=1;align=center;verticalAlign=middle;points=[];fillColor=none;strokeColor=none;rounded=0;" parent="1" vertex="1">
          <mxGeometry x="667.11" y="475" width="30" height="20" as="geometry" />
        </mxCell>
        <mxCell id="bA7a3gXTjvqMUb_rO1Sc-118" style="edgeStyle=orthogonalEdgeStyle;rounded=0;orthogonalLoop=1;jettySize=auto;html=1;entryX=0.5;entryY=1;entryDx=0;entryDy=0;" parent="1" source="bA7a3gXTjvqMUb_rO1Sc-105" target="bA7a3gXTjvqMUb_rO1Sc-24" edge="1">
          <mxGeometry relative="1" as="geometry">
            <Array as="points">
              <mxPoint x="630" y="525" />
              <mxPoint x="480" y="525" />
            </Array>
          </mxGeometry>
        </mxCell>
        <mxCell id="bA7a3gXTjvqMUb_rO1Sc-105" value="협업요청 &lt;br&gt;수락여부" style="rhombus;whiteSpace=wrap;html=1;" parent="1" vertex="1">
          <mxGeometry x="590" y="435" width="80" height="70" as="geometry" />
        </mxCell>
        <mxCell id="bA7a3gXTjvqMUb_rO1Sc-106" value="No" style="text;html=1;resizable=0;autosize=1;align=center;verticalAlign=middle;points=[];fillColor=none;strokeColor=none;rounded=0;" parent="1" vertex="1">
          <mxGeometry x="645" y="495" width="30" height="20" as="geometry" />
        </mxCell>
        <mxCell id="bA7a3gXTjvqMUb_rO1Sc-107" value="" style="edgeStyle=orthogonalEdgeStyle;rounded=0;orthogonalLoop=1;jettySize=auto;html=1;" parent="1" source="bA7a3gXTjvqMUb_rO1Sc-108" target="bA7a3gXTjvqMUb_rO1Sc-109" edge="1">
          <mxGeometry relative="1" as="geometry" />
        </mxCell>
        <mxCell id="bA7a3gXTjvqMUb_rO1Sc-119" style="edgeStyle=orthogonalEdgeStyle;rounded=0;orthogonalLoop=1;jettySize=auto;html=1;entryX=0.155;entryY=1.06;entryDx=0;entryDy=0;entryPerimeter=0;" parent="1" source="bA7a3gXTjvqMUb_rO1Sc-108" target="bA7a3gXTjvqMUb_rO1Sc-24" edge="1">
          <mxGeometry relative="1" as="geometry">
            <Array as="points">
              <mxPoint x="800" y="550" />
              <mxPoint x="452" y="550" />
            </Array>
          </mxGeometry>
        </mxCell>
        <mxCell id="bA7a3gXTjvqMUb_rO1Sc-108" value="상대방 &lt;br&gt;미팅요청&lt;br&gt;수락여부" style="rhombus;whiteSpace=wrap;html=1;" parent="1" vertex="1">
          <mxGeometry x="760" y="435" width="80" height="70" as="geometry" />
        </mxCell>
        <mxCell id="bA7a3gXTjvqMUb_rO1Sc-109" value="협업확정" style="rounded=0;whiteSpace=wrap;html=1;" parent="1" vertex="1">
          <mxGeometry x="889.9999999999998" y="450.5" width="80" height="40" as="geometry" />
        </mxCell>
        <mxCell id="bA7a3gXTjvqMUb_rO1Sc-110" value="Yes" style="text;html=1;resizable=0;autosize=1;align=center;verticalAlign=middle;points=[];fillColor=none;strokeColor=none;rounded=0;" parent="1" vertex="1">
          <mxGeometry x="832.89" y="480" width="30" height="20" as="geometry" />
        </mxCell>
        <mxCell id="bA7a3gXTjvqMUb_rO1Sc-111" value="No" style="text;html=1;resizable=0;autosize=1;align=center;verticalAlign=middle;points=[];fillColor=none;strokeColor=none;rounded=0;" parent="1" vertex="1">
          <mxGeometry x="802.8899999999999" y="500" width="30" height="20" as="geometry" />
        </mxCell>
        <mxCell id="bA7a3gXTjvqMUb_rO1Sc-112" value="미팅요청(달력)" style="text;html=1;resizable=0;autosize=1;align=center;verticalAlign=middle;points=[];fillColor=none;strokeColor=none;rounded=0;" parent="1" vertex="1">
          <mxGeometry x="669.9999999999999" y="445" width="100" height="20" as="geometry" />
        </mxCell>
        <mxCell id="bA7a3gXTjvqMUb_rO1Sc-116" value="미팅제안(달력)" style="text;html=1;resizable=0;autosize=1;align=center;verticalAlign=middle;points=[];fillColor=none;strokeColor=none;rounded=0;" parent="1" vertex="1">
          <mxGeometry x="915.7799999999999" y="320" width="100" height="20" as="geometry" />
        </mxCell>
        <mxCell id="bA7a3gXTjvqMUb_rO1Sc-117" value="기업자료전달" style="text;html=1;resizable=0;autosize=1;align=center;verticalAlign=middle;points=[];fillColor=none;strokeColor=none;rounded=0;" parent="1" vertex="1">
          <mxGeometry x="515" y="485" width="90" height="20" as="geometry" />
        </mxCell>
        <mxCell id="ifrvBTRP1nAYDAHsDfMw-1" value="MOU, 계약서 전달" style="text;html=1;resizable=0;autosize=1;align=center;verticalAlign=middle;points=[];fillColor=none;strokeColor=none;rounded=0;" vertex="1" parent="1">
          <mxGeometry x="1069.9999999999998" y="24.5" width="110" height="20" as="geometry" />
        </mxCell>
        <mxCell id="ifrvBTRP1nAYDAHsDfMw-4" value="No" style="text;html=1;resizable=0;autosize=1;align=center;verticalAlign=middle;points=[];fillColor=none;strokeColor=none;rounded=0;" vertex="1" parent="1">
          <mxGeometry x="895" y="385" width="30" height="20" as="geometry" />
        </mxCell>
        <mxCell id="ifrvBTRP1nAYDAHsDfMw-6" value="No" style="text;html=1;resizable=0;autosize=1;align=center;verticalAlign=middle;points=[];fillColor=none;strokeColor=none;rounded=0;" vertex="1" parent="1">
          <mxGeometry x="1047.8899999999999" y="390" width="30" height="20" as="geometry" />
        </mxCell>
        <mxCell id="ifrvBTRP1nAYDAHsDfMw-7" value="MOU, 계약서 전달" style="text;html=1;resizable=0;autosize=1;align=center;verticalAlign=middle;points=[];fillColor=none;strokeColor=none;rounded=0;" vertex="1" parent="1">
          <mxGeometry x="1062.8899999999999" y="315.5" width="110" height="20" as="geometry" />
        </mxCell>
      </root>
    </mxGraphModel>
  </diagram>
</mxfile>
